STARTFONT 2.1
COMMENT
COMMENT Converted from OpenType font "Exo-SemiBold.ttf" by "otf2bdf3\otf2bdf 3.0".
COMMENT
FONT -FreeType-Exo SemiBold-Medium-R-Normal--19-120-112-112-P-92-ISO10646-1
SIZE 12 112 112
FONTBOUNDINGBOX 24 23 -1 -5
STARTPROPERTIES 19
FOUNDRY "FreeType"
FAMILY_NAME "Exo SemiBold"
WEIGHT_NAME "Medium"
SLANT "R"
SETWIDTH_NAME "Normal"
ADD_STYLE_NAME ""
PIXEL_SIZE 19
POINT_SIZE 120
RESOLUTION_X 112
RESOLUTION_Y 112
SPACING "P"
AVERAGE_WIDTH 92
CHARSET_REGISTRY "ISO10646"
CHARSET_ENCODING "1"
FONT_ASCENT 19
FONT_DESCENT 6
COPYRIGHT "Copyright 2017 The Exo Project Authors (https://github.com/NDISCOVER/Exo-1.0)"
_OTF_FONTFILE "Exo-SemiBold.ttf"
_OTF_PSNAME "Exo-SemiBold"
ENDPROPERTIES
CHARS 190
STARTCHAR 0020
ENCODING 32
SWIDTH 267 0
DWIDTH 5 0
BBX 0 0 0 0
BITMAP
ENDCHAR
STARTCHAR 0021
ENCODING 33
SWIDTH 267 0
DWIDTH 5 0
BBX 3 14 1 0
BITMAP
E0
E0
E0
E0
E0
C0
40
40
40
40
00
00
C0
C0
ENDCHAR
STARTCHAR 0022
ENCODING 34
SWIDTH 375 0
DWIDTH 7 0
BBX 5 5 1 9
BITMAP
D8
D8
D8
D8
D8
ENDCHAR
STARTCHAR 0023
ENCODING 35
SWIDTH 696 0
DWIDTH 13 0
BBX 13 14 0 0
BITMAP
0640
0440
0440
0CC0
7FF8
7FF8
0880
0880
7FF0
FFF0
1980
1900
1100
1300
ENDCHAR
STARTCHAR 0024
ENCODING 36
SWIDTH 589 0
DWIDTH 11 0
BBX 9 17 1 -2
BITMAP
0800
3F00
7F00
E000
C000
C000
C000
FE00
7F00
0380
0180
0180
0380
FF80
FE00
0800
0800
ENDCHAR
STARTCHAR 0025
ENCODING 37
SWIDTH 964 0
DWIDTH 18 0
BBX 16 14 1 0
BITMAP
7818
FC10
8630
8660
8640
86C0
FC80
01BF
0363
0261
0661
0461
083F
183F
ENDCHAR
STARTCHAR 0026
ENCODING 38
SWIDTH 696 0
DWIDTH 13 0
BBX 11 14 1 0
BITMAP
1F00
3F00
7000
7000
3000
3800
3800
7C20
EE60
C7C0
C380
C780
FFC0
7CE0
ENDCHAR
STARTCHAR 0027
ENCODING 39
SWIDTH 214 0
DWIDTH 4 0
BBX 2 5 1 9
BITMAP
C0
C0
C0
C0
C0
ENDCHAR
STARTCHAR 0028
ENCODING 40
SWIDTH 375 0
DWIDTH 7 0
BBX 6 20 1 -4
BITMAP
1C
18
30
30
60
60
60
E0
E0
E0
E0
E0
E0
60
60
60
30
30
18
1C
ENDCHAR
STARTCHAR 0029
ENCODING 41
SWIDTH 375 0
DWIDTH 7 0
BBX 6 20 0 -4
BITMAP
E0
60
30
38
18
18
18
1C
1C
1C
1C
1C
1C
18
18
38
30
30
60
E0
ENDCHAR
STARTCHAR 002A
ENCODING 42
SWIDTH 428 0
DWIDTH 8 0
BBX 6 7 1 7
BITMAP
20
10
D4
28
70
5C
40
ENDCHAR
STARTCHAR 002B
ENCODING 43
SWIDTH 589 0
DWIDTH 11 0
BBX 9 9 1 2
BITMAP
0C00
0C00
0C00
FF80
FF80
0C00
0C00
0C00
0C00
ENDCHAR
STARTCHAR 002C
ENCODING 44
SWIDTH 214 0
DWIDTH 4 0
BBX 2 4 1 -2
BITMAP
C0
C0
40
80
ENDCHAR
STARTCHAR 002D
ENCODING 45
SWIDTH 321 0
DWIDTH 6 0
BBX 6 2 0 4
BITMAP
FC
FC
ENDCHAR
STARTCHAR 002E
ENCODING 46
SWIDTH 214 0
DWIDTH 4 0
BBX 2 2 1 0
BITMAP
C0
C0
ENDCHAR
STARTCHAR 002F
ENCODING 47
SWIDTH 428 0
DWIDTH 8 0
BBX 8 15 0 -1
BITMAP
07
06
06
0E
0C
0C
1C
18
18
38
30
30
70
60
E0
ENDCHAR
STARTCHAR 0030
ENCODING 48
SWIDTH 642 0
DWIDTH 12 0
BBX 10 14 1 0
BITMAP
3F00
7F80
E1C0
C0C0
C0C0
C0C0
C0C0
C0C0
C0C0
C0C0
C0C0
E1C0
7FC0
7F80
ENDCHAR
STARTCHAR 0031
ENCODING 49
SWIDTH 375 0
DWIDTH 7 0
BBX 5 14 1 0
BITMAP
38
F8
B8
38
38
38
38
38
38
38
38
38
38
38
ENDCHAR
STARTCHAR 0032
ENCODING 50
SWIDTH 589 0
DWIDTH 11 0
BBX 9 14 1 0
BITMAP
FE00
FF00
0380
0380
0380
0380
0300
0600
0C00
1800
3000
6000
FF80
FF80
ENDCHAR
STARTCHAR 0033
ENCODING 51
SWIDTH 589 0
DWIDTH 11 0
BBX 9 14 1 0
BITMAP
FE00
FF00
0780
0380
0380
0300
7F00
7F00
0300
0380
0380
0380
FF00
FE00
ENDCHAR
STARTCHAR 0034
ENCODING 52
SWIDTH 589 0
DWIDTH 11 0
BBX 11 14 0 0
BITMAP
0700
0600
0C00
0C00
1880
1980
3180
3180
6180
FFE0
7FE0
0180
0180
0180
ENDCHAR
STARTCHAR 0035
ENCODING 53
SWIDTH 642 0
DWIDTH 12 0
BBX 10 14 1 0
BITMAP
7F80
7F80
6000
6000
6000
6E00
7F80
7380
61C0
01C0
01C0
0180
FF80
FF00
ENDCHAR
STARTCHAR 0036
ENCODING 54
SWIDTH 589 0
DWIDTH 11 0
BBX 9 14 1 0
BITMAP
1F80
3F80
7000
6000
E000
C000
FF00
FF80
C180
C180
E180
6180
7F80
3F00
ENDCHAR
STARTCHAR 0037
ENCODING 55
SWIDTH 535 0
DWIDTH 10 0
BBX 10 14 0 0
BITMAP
FF80
FFC0
FF80
0380
0380
0300
0700
0600
0E00
0E00
0C00
1C00
1C00
3800
ENDCHAR
STARTCHAR 0038
ENCODING 56
SWIDTH 642 0
DWIDTH 12 0
BBX 10 14 1 0
BITMAP
3F00
7F80
6180
6180
6180
6180
7F80
7F80
E1C0
E1C0
E1C0
E1C0
FF80
7F80
ENDCHAR
STARTCHAR 0039
ENCODING 57
SWIDTH 589 0
DWIDTH 11 0
BBX 9 14 1 0
BITMAP
3E00
FF00
E380
C180
C180
C180
FF80
7F80
0180
0180
0180
0380
7F00
7E00
ENDCHAR
STARTCHAR 003A
ENCODING 58
SWIDTH 214 0
DWIDTH 4 0
BBX 2 10 1 0
BITMAP
C0
C0
00
00
00
00
00
00
C0
C0
ENDCHAR
STARTCHAR 003B
ENCODING 59
SWIDTH 214 0
DWIDTH 4 0
BBX 2 12 1 -2
BITMAP
C0
C0
00
00
00
00
00
00
C0
C0
40
80
ENDCHAR
STARTCHAR 003C
ENCODING 60
SWIDTH 589 0
DWIDTH 11 0
BBX 8 7 2 3
BITMAP
03
1F
FC
C0
FC
1F
03
ENDCHAR
STARTCHAR 003D
ENCODING 61
SWIDTH 589 0
DWIDTH 11 0
BBX 9 6 1 4
BITMAP
FF80
FF80
0000
0000
FF80
FF80
ENDCHAR
STARTCHAR 003E
ENCODING 62
SWIDTH 589 0
DWIDTH 11 0
BBX 8 7 2 3
BITMAP
80
F8
3F
07
3F
F0
80
ENDCHAR
STARTCHAR 003F
ENCODING 63
SWIDTH 535 0
DWIDTH 10 0
BBX 8 14 1 0
BITMAP
3C
FE
8E
07
07
07
06
3E
38
30
00
00
30
30
ENDCHAR
STARTCHAR 0040
ENCODING 64
SWIDTH 857 0
DWIDTH 16 0
BBX 14 17 1 -3
BITMAP
0FE0
1FF8
001C
000C
3FCC
7FCC
C06C
C06C
CFEC
CC6C
D86C
D8EC
CFEC
C66C
C00C
703C
7FF8
ENDCHAR
STARTCHAR 0041
ENCODING 65
SWIDTH 696 0
DWIDTH 13 0
BBX 12 14 0 0
BITMAP
0700
0F00
0F80
0D80
0D80
19C0
18C0
18C0
30E0
3FE0
3FE0
7060
6070
E030
ENDCHAR
STARTCHAR 0042
ENCODING 66
SWIDTH 642 0
DWIDTH 12 0
BBX 10 14 1 0
BITMAP
FE00
FF80
E380
E180
E180
E180
FF00
FF80
E180
E0C0
E0C0
E1C0
FF80
FF00
ENDCHAR
STARTCHAR 0043
ENCODING 67
SWIDTH 589 0
DWIDTH 11 0
BBX 9 14 1 0
BITMAP
1F00
7F80
7000
E000
C000
C000
C000
C000
C000
C000
E000
E000
7F80
3F80
ENDCHAR
STARTCHAR 0044
ENCODING 68
SWIDTH 696 0
DWIDTH 13 0
BBX 11 14 1 0
BITMAP
FF00
FF80
E1C0
E0C0
E0C0
E0E0
E0E0
E0E0
E0E0
E0E0
E0C0
E1C0
FF80
FF00
ENDCHAR
STARTCHAR 0045
ENCODING 69
SWIDTH 589 0
DWIDTH 11 0
BBX 9 14 1 0
BITMAP
3F80
7F80
E000
E000
E000
E000
FF00
FF00
E000
E000
E000
E000
FF80
7F80
ENDCHAR
STARTCHAR 0046
ENCODING 70
SWIDTH 589 0
DWIDTH 11 0
BBX 9 14 1 0
BITMAP
3F80
7F80
E000
E000
E000
E000
FC00
FF00
E000
E000
E000
E000
E000
E000
ENDCHAR
STARTCHAR 0047
ENCODING 71
SWIDTH 642 0
DWIDTH 12 0
BBX 10 14 1 0
BITMAP
1F80
7F80
7000
E000
C000
C000
C7C0
C7C0
C0C0
C0C0
E0C0
E0C0
7FC0
3EC0
ENDCHAR
STARTCHAR 0048
ENCODING 72
SWIDTH 696 0
DWIDTH 13 0
BBX 11 14 1 0
BITMAP
E0E0
E0E0
E0E0
E0E0
E0E0
E0E0
FFE0
FFE0
E0E0
E0E0
E0E0
E0E0
E0E0
E0E0
ENDCHAR
STARTCHAR 0049
ENCODING 73
SWIDTH 267 0
DWIDTH 5 0
BBX 3 14 1 0
BITMAP
E0
E0
E0
E0
E0
E0
E0
E0
E0
E0
E0
E0
E0
E0
ENDCHAR
STARTCHAR 004A
ENCODING 74
SWIDTH 375 0
DWIDTH 7 0
BBX 6 14 0 0
BITMAP
0C
0C
0C
0C
0C
0C
0C
0C
0C
0C
0C
0C
FC
F8
ENDCHAR
STARTCHAR 004B
ENCODING 75
SWIDTH 642 0
DWIDTH 12 0
BBX 10 14 1 0
BITMAP
E0C0
E1C0
E180
E300
E700
E600
FE00
FE00
E600
E700
E300
E380
E1C0
E0C0
ENDCHAR
STARTCHAR 004C
ENCODING 76
SWIDTH 535 0
DWIDTH 10 0
BBX 9 14 1 0
BITMAP
E000
E000
E000
E000
E000
E000
E000
E000
E000
E000
E000
E000
7F80
7F80
ENDCHAR
STARTCHAR 004D
ENCODING 77
SWIDTH 857 0
DWIDTH 16 0
BBX 14 14 1 0
BITMAP
7038
7038
7038
7878
7878
6878
6C58
6CDC
6CDC
E68C
E78C
C78C
C38C
C30C
ENDCHAR
STARTCHAR 004E
ENCODING 78
SWIDTH 696 0
DWIDTH 13 0
BBX 11 14 1 0
BITMAP
C060
E060
F060
F060
F860
EC60
EC60
E660
E360
E360
E1E0
E1E0
E0E0
E060
ENDCHAR
STARTCHAR 004F
ENCODING 79
SWIDTH 696 0
DWIDTH 13 0
BBX 11 14 1 0
BITMAP
1F00
7FC0
71C0
E0E0
C060
C060
C060
C060
C060
C060
E0E0
60C0
7FC0
3F80
ENDCHAR
STARTCHAR 0050
ENCODING 80
SWIDTH 589 0
DWIDTH 11 0
BBX 10 14 1 0
BITMAP
FF00
FF80
E1C0
E1C0
E1C0
E1C0
E1C0
FF80
FF80
E600
E000
E000
E000
E000
ENDCHAR
STARTCHAR 0051
ENCODING 81
SWIDTH 696 0
DWIDTH 13 0
BBX 11 17 1 -3
BITMAP
1F00
7FC0
71C0
E0E0
C060
C060
C060
C060
C060
C060
E0E0
60C0
7FC0
3F80
0000
0600
03C0
ENDCHAR
STARTCHAR 0052
ENCODING 82
SWIDTH 642 0
DWIDTH 12 0
BBX 10 14 1 0
BITMAP
FF00
FF80
E180
E1C0
E1C0
E1C0
E180
FF80
FE00
E300
E300
E180
E180
E1C0
ENDCHAR
STARTCHAR 0053
ENCODING 83
SWIDTH 589 0
DWIDTH 11 0
BBX 9 14 1 0
BITMAP
3F00
7F00
E000
C000
C000
C000
FE00
7F00
0380
0180
0180
0380
FF80
FE00
ENDCHAR
STARTCHAR 0054
ENCODING 84
SWIDTH 589 0
DWIDTH 11 0
BBX 11 14 0 0
BITMAP
FFE0
FFE0
0E00
0E00
0E00
0E00
0E00
0E00
0E00
0E00
0E00
0E00
0E00
0E00
ENDCHAR
STARTCHAR 0055
ENCODING 85
SWIDTH 696 0
DWIDTH 13 0
BBX 11 14 1 0
BITMAP
C0E0
C0E0
C0E0
C0E0
C0E0
C0E0
C0E0
C0E0
C0E0
C0E0
E0E0
E0C0
7FC0
3F80
ENDCHAR
STARTCHAR 0056
ENCODING 86
SWIDTH 696 0
DWIDTH 13 0
BBX 12 14 0 0
BITMAP
E030
6030
7070
7060
3060
30E0
38C0
18C0
19C0
1D80
0D80
0F80
0F00
0700
ENDCHAR
STARTCHAR 0057
ENCODING 87
SWIDTH 1017 0
DWIDTH 19 0
BBX 18 14 0 0
BITMAP
E0C0C0
60E1C0
60E1C0
71E180
71B180
31B380
333380
3B3300
3B1B00
1B1F00
1E1F00
1E0E00
1E0E00
0C0E00
ENDCHAR
STARTCHAR 0058
ENCODING 88
SWIDTH 642 0
DWIDTH 12 0
BBX 12 14 0 0
BITMAP
E070
70E0
30C0
19C0
1D80
0F00
0F00
0F00
0F00
1F80
1980
38C0
70E0
E070
ENDCHAR
STARTCHAR 0059
ENCODING 89
SWIDTH 642 0
DWIDTH 12 0
BBX 11 14 0 0
BITMAP
E060
60E0
70C0
31C0
3980
1980
1F00
0F00
0F00
0600
0600
0600
0600
0600
ENDCHAR
STARTCHAR 005A
ENCODING 90
SWIDTH 589 0
DWIDTH 11 0
BBX 9 14 1 0
BITMAP
FF80
FF80
0380
0700
0600
0E00
1C00
1800
3800
7000
6000
E000
FF80
FF80
ENDCHAR
STARTCHAR 005B
ENCODING 91
SWIDTH 321 0
DWIDTH 6 0
BBX 5 20 1 -4
BITMAP
38
78
60
E0
E0
E0
E0
E0
E0
E0
E0
E0
E0
E0
E0
E0
E0
60
78
38
ENDCHAR
STARTCHAR 005C
ENCODING 92
SWIDTH 428 0
DWIDTH 8 0
BBX 8 15 0 -1
BITMAP
E0
60
70
30
30
38
18
18
1C
0C
0C
0E
06
06
07
ENDCHAR
STARTCHAR 005D
ENCODING 93
SWIDTH 321 0
DWIDTH 6 0
BBX 5 20 0 -4
BITMAP
E0
F0
38
18
18
18
18
18
18
18
18
18
18
18
18
18
18
38
F0
E0
ENDCHAR
STARTCHAR 005E
ENCODING 94
SWIDTH 375 0
DWIDTH 7 0
BBX 5 2 1 10
BITMAP
70
C8
ENDCHAR
STARTCHAR 005F
ENCODING 95
SWIDTH 589 0
DWIDTH 11 0
BBX 11 1 0 -3
BITMAP
FFE0
ENDCHAR
STARTCHAR 0060
ENCODING 96
SWIDTH 214 0
DWIDTH 4 0
BBX 4 2 0 12
BITMAP
E0
30
ENDCHAR
STARTCHAR 0061
ENCODING 97
SWIDTH 535 0
DWIDTH 10 0
BBX 8 10 1 0
BITMAP
FE
FF
03
03
7F
E3
C3
C3
FF
FB
ENDCHAR
STARTCHAR 0062
ENCODING 98
SWIDTH 589 0
DWIDTH 11 0
BBX 9 14 1 0
BITMAP
C000
C000
C000
C000
DF00
FF00
C380
C180
C180
C180
C180
C380
FF00
DF00
ENDCHAR
STARTCHAR 0063
ENCODING 99
SWIDTH 482 0
DWIDTH 9 0
BBX 8 10 1 0
BITMAP
7E
7E
E0
C0
C0
C0
C0
E0
7F
3F
ENDCHAR
STARTCHAR 0064
ENCODING 100
SWIDTH 589 0
DWIDTH 11 0
BBX 9 14 1 0
BITMAP
0380
0380
0380
0380
7F80
FF80
E380
C380
C380
C380
C380
E380
FF80
7D80
ENDCHAR
STARTCHAR 0065
ENCODING 101
SWIDTH 535 0
DWIDTH 10 0
BBX 8 10 1 0
BITMAP
7E
FF
C3
C3
FF
FE
C0
C0
FF
7F
ENDCHAR
STARTCHAR 0066
ENCODING 102
SWIDTH 375 0
DWIDTH 7 0
BBX 7 14 0 0
BITMAP
1E
3E
30
30
FE
FE
30
30
30
30
30
30
30
30
ENDCHAR
STARTCHAR 0067
ENCODING 103
SWIDTH 589 0
DWIDTH 11 0
BBX 10 15 0 -5
BITMAP
3FC0
7F80
6180
61C0
61C0
3F80
3F00
6000
7F80
3FC0
60C0
E0C0
E0C0
7FC0
1F00
ENDCHAR
STARTCHAR 0068
ENCODING 104
SWIDTH 589 0
DWIDTH 11 0
BBX 9 14 1 0
BITMAP
C000
C000
C000
C000
DF00
FF80
E380
C180
C180
C180
C180
C180
C180
C180
ENDCHAR
STARTCHAR 0069
ENCODING 105
SWIDTH 267 0
DWIDTH 5 0
BBX 3 14 1 0
BITMAP
E0
E0
00
00
C0
C0
C0
C0
C0
C0
C0
C0
C0
C0
ENDCHAR
STARTCHAR 006A
ENCODING 106
SWIDTH 267 0
DWIDTH 5 0
BBX 3 18 1 -4
BITMAP
E0
E0
00
00
C0
C0
C0
C0
C0
C0
C0
C0
C0
C0
C0
C0
C0
C0
ENDCHAR
STARTCHAR 006B
ENCODING 107
SWIDTH 535 0
DWIDTH 10 0
BBX 9 14 1 0
BITMAP
C000
C000
C000
C000
C380
C700
C600
CC00
FC00
FC00
CE00
C600
C300
C380
ENDCHAR
STARTCHAR 006C
ENCODING 108
SWIDTH 321 0
DWIDTH 6 0
BBX 5 14 1 0
BITMAP
C0
C0
C0
C0
C0
C0
C0
C0
C0
C0
C0
E0
F8
78
ENDCHAR
STARTCHAR 006D
ENCODING 109
SWIDTH 964 0
DWIDTH 18 0
BBX 15 10 1 0
BITMAP
DF3C
FFFE
E386
C186
C186
C186
C186
C186
C186
C186
ENDCHAR
STARTCHAR 006E
ENCODING 110
SWIDTH 589 0
DWIDTH 11 0
BBX 9 10 1 0
BITMAP
DF00
FF80
E380
C180
C180
C180
C180
C180
C180
C180
ENDCHAR
STARTCHAR 006F
ENCODING 111
SWIDTH 589 0
DWIDTH 11 0
BBX 9 10 1 0
BITMAP
7E00
FF00
E380
C380
C180
C180
C380
E380
7F00
3E00
ENDCHAR
STARTCHAR 0070
ENCODING 112
SWIDTH 589 0
DWIDTH 11 0
BBX 9 14 1 -4
BITMAP
DE00
FF00
C380
C180
C180
C180
C180
C380
FF00
DF00
C000
C000
C000
C000
ENDCHAR
STARTCHAR 0071
ENCODING 113
SWIDTH 589 0
DWIDTH 11 0
BBX 9 14 1 -4
BITMAP
7F80
FF80
E380
C380
C380
C380
C380
E380
FF80
7F80
0380
0380
0380
0380
ENDCHAR
STARTCHAR 0072
ENCODING 114
SWIDTH 428 0
DWIDTH 8 0
BBX 6 10 1 0
BITMAP
CC
DC
F0
C0
C0
C0
C0
C0
C0
C0
ENDCHAR
STARTCHAR 0073
ENCODING 115
SWIDTH 482 0
DWIDTH 9 0
BBX 8 10 1 0
BITMAP
7E
FE
C0
C0
FE
7E
03
03
FE
FE
ENDCHAR
STARTCHAR 0074
ENCODING 116
SWIDTH 375 0
DWIDTH 7 0
BBX 7 13 0 0
BITMAP
30
30
30
FE
FE
30
30
30
30
30
30
3C
1C
ENDCHAR
STARTCHAR 0075
ENCODING 117
SWIDTH 589 0
DWIDTH 11 0
BBX 9 10 1 0
BITMAP
C180
C180
C180
C180
C180
C180
C180
E380
FF80
7D80
ENDCHAR
STARTCHAR 0076
ENCODING 118
SWIDTH 535 0
DWIDTH 10 0
BBX 10 10 0 0
BITMAP
E0C0
61C0
6180
3180
3300
3300
1B00
1E00
1E00
0E00
ENDCHAR
STARTCHAR 0077
ENCODING 119
SWIDTH 803 0
DWIDTH 15 0
BBX 15 10 0 0
BITMAP
E18E
638E
638C
63CC
36CC
36D8
3658
3478
1C78
1C30
ENDCHAR
STARTCHAR 0078
ENCODING 120
SWIDTH 535 0
DWIDTH 10 0
BBX 10 10 0 0
BITMAP
E1C0
7380
3300
1E00
1E00
1C00
1E00
3300
7380
E1C0
ENDCHAR
STARTCHAR 0079
ENCODING 121
SWIDTH 535 0
DWIDTH 10 0
BBX 10 14 0 -4
BITMAP
E0C0
61C0
61C0
7180
3180
3380
3300
3B00
1F00
0F00
0600
0600
0600
0E00
ENDCHAR
STARTCHAR 007A
ENCODING 122
SWIDTH 482 0
DWIDTH 9 0
BBX 8 10 1 0
BITMAP
FF
FF
0E
0C
18
38
70
60
FF
FF
ENDCHAR
STARTCHAR 007B
ENCODING 123
SWIDTH 321 0
DWIDTH 6 0
BBX 6 20 0 -4
BITMAP
0C
3C
30
30
30
30
30
30
70
E0
F0
30
30
30
30
30
30
30
3C
1C
ENDCHAR
STARTCHAR 007C
ENCODING 124
SWIDTH 267 0
DWIDTH 5 0
BBX 2 15 1 -1
BITMAP
C0
C0
C0
C0
C0
C0
C0
C0
C0
C0
C0
C0
C0
C0
C0
ENDCHAR
STARTCHAR 007D
ENCODING 125
SWIDTH 321 0
DWIDTH 6 0
BBX 6 20 0 -4
BITMAP
C0
F0
70
30
30
30
30
30
38
1C
3C
30
30
30
30
30
30
30
F0
E0
ENDCHAR
STARTCHAR 007E
ENCODING 126
SWIDTH 428 0
DWIDTH 8 0
BBX 6 2 1 10
BITMAP
F4
9C
ENDCHAR
STARTCHAR 00A1
ENCODING 161
SWIDTH 267 0
DWIDTH 5 0
BBX 3 14 1 -4
BITMAP
60
60
00
00
40
40
40
60
60
60
E0
E0
E0
E0
ENDCHAR
STARTCHAR 00A2
ENCODING 162
SWIDTH 482 0
DWIDTH 9 0
BBX 7 14 1 -2
BITMAP
18
18
7E
FE
C0
C0
C0
C0
C0
C0
FE
7E
18
18
ENDCHAR
STARTCHAR 00A3
ENCODING 163
SWIDTH 589 0
DWIDTH 11 0
BBX 9 14 1 0
BITMAP
0F80
1F80
3800
3000
3000
3000
7E00
FF00
3000
3000
3000
3000
FF80
FF80
ENDCHAR
STARTCHAR 00A4
ENCODING 164
SWIDTH 589 0
DWIDTH 11 0
BBX 9 9 1 2
BITMAP
C080
7D80
3700
2300
6100
2300
3F00
E980
4080
ENDCHAR
STARTCHAR 00A5
ENCODING 165
SWIDTH 589 0
DWIDTH 11 0
BBX 11 14 0 0
BITMAP
E0E0
60C0
60C0
3180
3180
3B80
1B00
1F00
7FC0
0E00
7FC0
7FC0
0E00
0E00
ENDCHAR
STARTCHAR 00A6
ENCODING 166
SWIDTH 267 0
DWIDTH 5 0
BBX 2 15 1 -1
BITMAP
C0
C0
C0
C0
C0
C0
00
00
00
C0
C0
C0
C0
C0
C0
ENDCHAR
STARTCHAR 00A7
ENCODING 167
SWIDTH 535 0
DWIDTH 10 0
BBX 8 15 1 0
BITMAP
3E
FF
C0
C0
C0
FF
E7
C3
C3
FE
7F
03
03
7F
7E
ENDCHAR
STARTCHAR 00A8
ENCODING 168
SWIDTH 428 0
DWIDTH 8 0
BBX 6 2 1 12
BITMAP
CC
CC
ENDCHAR
STARTCHAR 00A9
ENCODING 169
SWIDTH 803 0
DWIDTH 15 0
BBX 13 14 1 0
BITMAP
1FC0
3FF0
6018
C788
CC48
9808
9808
9808
9808
C808
CF88
4018
3030
1FE0
ENDCHAR
STARTCHAR 00AA
ENCODING 170
SWIDTH 428 0
DWIDTH 8 0
BBX 7 9 0 5
BITMAP
7C
0E
06
7E
C6
C6
7E
00
7E
ENDCHAR
STARTCHAR 00AB
ENCODING 171
SWIDTH 642 0
DWIDTH 12 0
BBX 10 8 1 1
BITMAP
18C0
3180
6300
CE00
6700
3380
19C0
1080
ENDCHAR
STARTCHAR 00AC
ENCODING 172
SWIDTH 589 0
DWIDTH 11 0
BBX 9 7 1 3
BITMAP
FF80
FF80
0180
0180
0180
0180
0180
ENDCHAR
STARTCHAR 00AD
ENCODING 173
SWIDTH 321 0
DWIDTH 6 0
BBX 6 2 0 4
BITMAP
FC
FC
ENDCHAR
STARTCHAR 00AE
ENCODING 174
SWIDTH 803 0
DWIDTH 15 0
BBX 13 14 1 0
BITMAP
1FC0
3FF0
6018
CF88
C888
88C8
88C8
8F88
8908
C888
C8C8
4018
3030
1FE0
ENDCHAR
STARTCHAR 00AF
ENCODING 175
SWIDTH 375 0
DWIDTH 7 0
BBX 5 2 1 12
BITMAP
F8
F8
ENDCHAR
STARTCHAR 00B0
ENCODING 176
SWIDTH 321 0
DWIDTH 6 0
BBX 6 5 0 9
BITMAP
78
4C
84
48
38
ENDCHAR
STARTCHAR 00B1
ENCODING 177
SWIDTH 589 0
DWIDTH 11 0
BBX 9 12 1 2
BITMAP
0C00
0C00
0C00
FF80
FF80
0C00
0C00
0C00
0C00
0000
FF80
FF80
ENDCHAR
STARTCHAR 00B2
ENCODING 178
SWIDTH 428 0
DWIDTH 8 0
BBX 7 10 1 5
BITMAP
FC
1C
0C
0C
0C
18
30
60
FE
FE
ENDCHAR
STARTCHAR 00B3
ENCODING 179
SWIDTH 428 0
DWIDTH 8 0
BBX 6 10 1 5
BITMAP
FC
1C
0C
0C
78
3C
0C
0C
FC
F8
ENDCHAR
STARTCHAR 00B4
ENCODING 180
SWIDTH 214 0
DWIDTH 4 0
BBX 4 2 0 12
BITMAP
70
C0
ENDCHAR
STARTCHAR 00B5
ENCODING 181
SWIDTH 589 0
DWIDTH 11 0
BBX 9 15 1 -5
BITMAP
C180
C180
C180
C180
C180
C180
C180
E380
FF80
FD80
C000
C000
C000
C000
C000
ENDCHAR
STARTCHAR 00B6
ENCODING 182
SWIDTH 589 0
DWIDTH 11 0
BBX 10 19 1 -5
BITMAP
7FC0
FFC0
8900
8900
8900
8900
C900
F900
0900
0900
0900
0900
0900
0900
0800
0800
0800
0800
0800
ENDCHAR
STARTCHAR 00B7
ENCODING 183
SWIDTH 267 0
DWIDTH 5 0
BBX 2 2 1 6
BITMAP
C0
C0
ENDCHAR
STARTCHAR 00B8
ENCODING 184
SWIDTH 267 0
DWIDTH 5 0
BBX 3 4 1 -4
BITMAP
40
C0
60
C0
ENDCHAR
STARTCHAR 00B9
ENCODING 185
SWIDTH 428 0
DWIDTH 8 0
BBX 7 10 1 5
BITMAP
F0
F0
30
30
30
30
30
30
FE
FE
ENDCHAR
STARTCHAR 00BA
ENCODING 186
SWIDTH 428 0
DWIDTH 8 0
BBX 6 9 1 5
BITMAP
F8
CC
CC
CC
CC
CC
FC
00
FC
ENDCHAR
STARTCHAR 00BB
ENCODING 187
SWIDTH 642 0
DWIDTH 12 0
BBX 10 8 1 1
BITMAP
CC00
E600
7300
39C0
3180
6300
CE00
8400
ENDCHAR
STARTCHAR 00BC
ENCODING 188
SWIDTH 1285 0
DWIDTH 24 0
BBX 22 15 1 0
BITMAP
F80000
F80600
380400
380C00
380810
381860
381060
3830C0
FE20D8
FE6198
004198
00C3FC
0081F8
018018
010018
ENDCHAR
STARTCHAR 00BD
ENCODING 189
SWIDTH 1285 0
DWIDTH 24 0
BBX 22 15 1 0
BITMAP
F80000
F80600
380400
380C00
380800
3819F8
381038
383018
FE2018
FE6038
004070
00C0E0
0081C0
0181FC
0101FC
ENDCHAR
STARTCHAR 00BE
ENCODING 190
SWIDTH 1285 0
DWIDTH 24 0
BBX 22 15 1 0
BITMAP
FC0000
1C0600
060400
0C0C00
7C0810
3C1860
061060
0630C0
FC20D8
F86198
004198
00C3FC
0081F8
018018
010018
ENDCHAR
STARTCHAR 00BF
ENCODING 191
SWIDTH 535 0
DWIDTH 10 0
BBX 8 14 1 -4
BITMAP
0C
0C
00
00
0C
1C
7C
E0
E0
E0
E0
E1
7F
3C
ENDCHAR
STARTCHAR 00C0
ENCODING 192
SWIDTH 696 0
DWIDTH 13 0
BBX 12 17 0 0
BITMAP
0C00
0600
0000
0700
0F00
0F80
0D80
0D80
19C0
18C0
18C0
30E0
3FE0
3FE0
7060
6070
E030
ENDCHAR
STARTCHAR 00C1
ENCODING 193
SWIDTH 696 0
DWIDTH 13 0
BBX 12 17 0 0
BITMAP
0180
0300
0000
0700
0F00
0F80
0D80
0D80
19C0
18C0
18C0
30E0
3FE0
3FE0
7060
6070
E030
ENDCHAR
STARTCHAR 00C2
ENCODING 194
SWIDTH 696 0
DWIDTH 13 0
BBX 12 17 0 0
BITMAP
0700
0D80
1000
0700
0F00
0F80
0D80
0D80
19C0
18C0
18C0
30E0
3FE0
3FE0
7060
6070
E030
ENDCHAR
STARTCHAR 00C3
ENCODING 195
SWIDTH 696 0
DWIDTH 13 0
BBX 12 17 0 0
BITMAP
1EC0
1380
0000
0700
0F00
0F80
0D80
0D80
19C0
18C0
18C0
30E0
3FE0
3FE0
7060
6070
E030
ENDCHAR
STARTCHAR 00C4
ENCODING 196
SWIDTH 696 0
DWIDTH 13 0
BBX 12 17 0 0
BITMAP
1980
1980
0000
0700
0F00
0F80
0D80
0D80
19C0
18C0
18C0
30E0
3FE0
3FE0
7060
6070
E030
ENDCHAR
STARTCHAR 00C5
ENCODING 197
SWIDTH 696 0
DWIDTH 13 0
BBX 12 18 0 0
BITMAP
0F00
0980
0980
0700
0700
0F00
0F80
0D80
0D80
19C0
18C0
18C0
30E0
3FE0
3FE0
7060
6070
E030
ENDCHAR
STARTCHAR 00C6
ENCODING 198
SWIDTH 964 0
DWIDTH 18 0
BBX 17 14 0 0
BITMAP
007F80
00FF80
01E000
03E000
036000
076000
067F00
0C7F00
0C6000
1FE000
3FE000
306000
707F80
E03F80
ENDCHAR
STARTCHAR 00C7
ENCODING 199
SWIDTH 589 0
DWIDTH 11 0
BBX 9 18 1 -4
BITMAP
1F00
7F80
7000
E000
C000
C000
C000
C000
C000
C000
E000
E000
7F80
3F80
0400
0C00
0600
0C00
ENDCHAR
STARTCHAR 00C8
ENCODING 200
SWIDTH 589 0
DWIDTH 11 0
BBX 9 17 1 0
BITMAP
3800
0800
0400
3F80
7F80
E000
E000
E000
E000
FF00
FF00
E000
E000
E000
E000
FF80
7F80
ENDCHAR
STARTCHAR 00C9
ENCODING 201
SWIDTH 589 0
DWIDTH 11 0
BBX 9 17 1 0
BITMAP
0700
0400
0800
3F80
7F80
E000
E000
E000
E000
FF00
FF00
E000
E000
E000
E000
FF80
7F80
ENDCHAR
STARTCHAR 00CA
ENCODING 202
SWIDTH 589 0
DWIDTH 11 0
BBX 9 17 1 0
BITMAP
1C00
3200
0100
3F80
7F80
E000
E000
E000
E000
FF00
FF00
E000
E000
E000
E000
FF80
7F80
ENDCHAR
STARTCHAR 00CB
ENCODING 203
SWIDTH 589 0
DWIDTH 11 0
BBX 9 17 1 0
BITMAP
3300
3300
0000
3F80
7F80
E000
E000
E000
E000
FF00
FF00
E000
E000
E000
E000
FF80
7F80
ENDCHAR
STARTCHAR 00CC
ENCODING 204
SWIDTH 267 0
DWIDTH 5 0
BBX 4 17 0 0
BITMAP
C0
60
00
70
70
70
70
70
70
70
70
70
70
70
70
70
70
ENDCHAR
STARTCHAR 00CD
ENCODING 205
SWIDTH 267 0
DWIDTH 5 0
BBX 4 17 1 0
BITMAP
30
60
00
E0
E0
E0
E0
E0
E0
E0
E0
E0
E0
E0
E0
E0
E0
ENDCHAR
STARTCHAR 00CE
ENCODING 206
SWIDTH 267 0
DWIDTH 5 0
BBX 5 17 0 0
BITMAP
70
D8
00
70
70
70
70
70
70
70
70
70
70
70
70
70
70
ENDCHAR
STARTCHAR 00CF
ENCODING 207
SWIDTH 267 0
DWIDTH 5 0
BBX 6 17 -1 0
BITMAP
CC
CC
00
38
38
38
38
38
38
38
38
38
38
38
38
38
38
ENDCHAR
STARTCHAR 00D0
ENCODING 208
SWIDTH 696 0
DWIDTH 13 0
BBX 12 14 0 0
BITMAP
7F80
7FC0
70E0
7060
7060
7070
FC70
FC70
7070
7070
7060
70E0
7FC0
7F80
ENDCHAR
STARTCHAR 00D1
ENCODING 209
SWIDTH 696 0
DWIDTH 13 0
BBX 11 17 1 0
BITMAP
3D80
2700
0000
C060
E060
F060
F060
F860
EC60
EC60
E660
E360
E360
E1E0
E1E0
E0E0
E060
ENDCHAR
STARTCHAR 00D2
ENCODING 210
SWIDTH 696 0
DWIDTH 13 0
BBX 11 17 1 0
BITMAP
1800
0C00
0000
1F00
7FC0
71C0
E0E0
C060
C060
C060
C060
C060
C060
E0E0
60C0
7FC0
3F80
ENDCHAR
STARTCHAR 00D3
ENCODING 211
SWIDTH 696 0
DWIDTH 13 0
BBX 11 17 1 0
BITMAP
0300
0600
0000
1F00
7FC0
71C0
E0E0
C060
C060
C060
C060
C060
C060
E0E0
60C0
7FC0
3F80
ENDCHAR
STARTCHAR 00D4
ENCODING 212
SWIDTH 696 0
DWIDTH 13 0
BBX 11 17 1 0
BITMAP
0E00
1B00
0000
1F00
7FC0
71C0
E0E0
C060
C060
C060
C060
C060
C060
E0E0
60C0
7FC0
3F80
ENDCHAR
STARTCHAR 00D5
ENCODING 213
SWIDTH 696 0
DWIDTH 13 0
BBX 11 17 1 0
BITMAP
1D80
2700
0000
1F00
7FC0
71C0
E0E0
C060
C060
C060
C060
C060
C060
E0E0
60C0
7FC0
3F80
ENDCHAR
STARTCHAR 00D6
ENCODING 214
SWIDTH 696 0
DWIDTH 13 0
BBX 11 17 1 0
BITMAP
3100
3100
0000
1F00
7FC0
71C0
E0E0
C060
C060
C060
C060
C060
C060
E0E0
60C0
7FC0
3F80
ENDCHAR
STARTCHAR 00D7
ENCODING 215
SWIDTH 589 0
DWIDTH 11 0
BBX 7 7 2 3
BITMAP
46
EE
7C
28
7C
EE
44
ENDCHAR
STARTCHAR 00D8
ENCODING 216
SWIDTH 696 0
DWIDTH 13 0
BBX 11 14 1 0
BITMAP
1F60
7FC0
71C0
E1E0
C360
C260
C660
CC60
C860
D860
F0E0
60C0
7FC0
FF80
ENDCHAR
STARTCHAR 00D9
ENCODING 217
SWIDTH 696 0
DWIDTH 13 0
BBX 11 17 1 0
BITMAP
1800
0C00
0000
C0E0
C0E0
C0E0
C0E0
C0E0
C0E0
C0E0
C0E0
C0E0
C0E0
E0E0
E0C0
7FC0
3F80
ENDCHAR
STARTCHAR 00DA
ENCODING 218
SWIDTH 696 0
DWIDTH 13 0
BBX 11 17 1 0
BITMAP
0300
0600
0000
C0E0
C0E0
C0E0
C0E0
C0E0
C0E0
C0E0
C0E0
C0E0
C0E0
E0E0
E0C0
7FC0
3F80
ENDCHAR
STARTCHAR 00DB
ENCODING 219
SWIDTH 696 0
DWIDTH 13 0
BBX 11 17 1 0
BITMAP
0E00
1300
2000
C0E0
C0E0
C0E0
C0E0
C0E0
C0E0
C0E0
C0E0
C0E0
C0E0
E0E0
E0C0
7FC0
3F80
ENDCHAR
STARTCHAR 00DC
ENCODING 220
SWIDTH 696 0
DWIDTH 13 0
BBX 11 17 1 0
BITMAP
3300
3300
0000
C0E0
C0E0
C0E0
C0E0
C0E0
C0E0
C0E0
C0E0
C0E0
C0E0
E0E0
E0C0
7FC0
3F80
ENDCHAR
STARTCHAR 00DD
ENCODING 221
SWIDTH 642 0
DWIDTH 12 0
BBX 11 17 0 0
BITMAP
0380
0200
0400
E060
60E0
70C0
31C0
3980
1980
1F00
0F00
0F00
0600
0600
0600
0600
0600
ENDCHAR
STARTCHAR 00DE
ENCODING 222
SWIDTH 589 0
DWIDTH 11 0
BBX 9 14 1 0
BITMAP
E000
E000
E000
FF00
FF80
E180
E180
E180
E380
FF80
FF00
E000
E000
E000
ENDCHAR
STARTCHAR 00DF
ENCODING 223
SWIDTH 589 0
DWIDTH 11 0
BBX 10 14 1 0
BITMAP
3F00
7F80
E180
C180
C380
C700
C600
CE00
C700
C380
C1C0
C0C0
CFC0
CF80
ENDCHAR
STARTCHAR 00E0
ENCODING 224
SWIDTH 535 0
DWIDTH 10 0
BBX 8 14 1 0
BITMAP
30
18
00
00
FE
FF
03
03
7F
E3
C3
C3
FF
FB
ENDCHAR
STARTCHAR 00E1
ENCODING 225
SWIDTH 535 0
DWIDTH 10 0
BBX 8 14 1 0
BITMAP
0E
08
10
00
FE
FF
03
03
7F
E3
C3
C3
FF
FB
ENDCHAR
STARTCHAR 00E2
ENCODING 226
SWIDTH 535 0
DWIDTH 10 0
BBX 8 14 1 0
BITMAP
1C
24
42
00
FE
FF
03
03
7F
E3
C3
C3
FF
FB
ENDCHAR
STARTCHAR 00E3
ENCODING 227
SWIDTH 535 0
DWIDTH 10 0
BBX 8 14 1 0
BITMAP
7B
4E
00
00
FE
FF
03
03
7F
E3
C3
C3
FF
FB
ENDCHAR
STARTCHAR 00E4
ENCODING 228
SWIDTH 535 0
DWIDTH 10 0
BBX 8 14 1 0
BITMAP
66
66
00
00
FE
FF
03
03
7F
E3
C3
C3
FF
FB
ENDCHAR
STARTCHAR 00E5
ENCODING 229
SWIDTH 535 0
DWIDTH 10 0
BBX 8 15 1 0
BITMAP
3C
24
24
3C
00
FE
FF
03
03
7F
E3
C3
C3
FF
FB
ENDCHAR
STARTCHAR 00E6
ENCODING 230
SWIDTH 857 0
DWIDTH 16 0
BBX 14 10 1 0
BITMAP
FCF8
FFFC
030C
030C
7FFC
E3F8
C300
C380
FDFC
F8FC
ENDCHAR
STARTCHAR 00E7
ENCODING 231
SWIDTH 482 0
DWIDTH 9 0
BBX 8 14 1 -4
BITMAP
7E
7E
E0
C0
C0
C0
C0
E0
7F
3F
10
08
08
10
ENDCHAR
STARTCHAR 00E8
ENCODING 232
SWIDTH 535 0
DWIDTH 10 0
BBX 8 14 1 0
BITMAP
30
18
00
00
7E
FF
C3
C3
FF
FE
C0
C0
FF
7F
ENDCHAR
STARTCHAR 00E9
ENCODING 233
SWIDTH 535 0
DWIDTH 10 0
BBX 8 14 1 0
BITMAP
0E
08
10
00
7E
FF
C3
C3
FF
FE
C0
C0
FF
7F
ENDCHAR
STARTCHAR 00EA
ENCODING 234
SWIDTH 535 0
DWIDTH 10 0
BBX 8 14 1 0
BITMAP
1C
24
42
00
7E
FF
C3
C3
FF
FE
C0
C0
FF
7F
ENDCHAR
STARTCHAR 00EB
ENCODING 235
SWIDTH 535 0
DWIDTH 10 0
BBX 8 14 1 0
BITMAP
66
66
00
00
7E
FF
C3
C3
FF
FE
C0
C0
FF
7F
ENDCHAR
STARTCHAR 00EC
ENCODING 236
SWIDTH 267 0
DWIDTH 5 0
BBX 3 14 0 0
BITMAP
C0
60
00
00
60
60
60
60
60
60
60
60
60
60
ENDCHAR
STARTCHAR 00ED
ENCODING 237
SWIDTH 267 0
DWIDTH 5 0
BBX 4 14 1 0
BITMAP
30
60
00
00
C0
C0
C0
C0
C0
C0
C0
C0
C0
C0
ENDCHAR
STARTCHAR 00EE
ENCODING 238
SWIDTH 267 0
DWIDTH 5 0
BBX 6 14 -1 0
BITMAP
38
6C
80
00
30
30
30
30
30
30
30
30
30
30
ENDCHAR
STARTCHAR 00EF
ENCODING 239
SWIDTH 267 0
DWIDTH 5 0
BBX 5 14 0 0
BITMAP
98
98
00
00
60
60
60
60
60
60
60
60
60
60
ENDCHAR
STARTCHAR 00F0
ENCODING 240
SWIDTH 589 0
DWIDTH 11 0
BBX 9 14 1 0
BITMAP
3980
0E00
3F00
0300
3F00
7F80
E380
C380
C180
C180
C380
E380
7F00
7E00
ENDCHAR
STARTCHAR 00F1
ENCODING 241
SWIDTH 589 0
DWIDTH 11 0
BBX 9 14 1 0
BITMAP
3900
6F00
0000
0000
DF00
FF80
E380
C180
C180
C180
C180
C180
C180
C180
ENDCHAR
STARTCHAR 00F2
ENCODING 242
SWIDTH 589 0
DWIDTH 11 0
BBX 9 14 1 0
BITMAP
3000
1800
0000
0000
7E00
FF00
E380
C380
C180
C180
C380
E380
7F00
3E00
ENDCHAR
STARTCHAR 00F3
ENCODING 243
SWIDTH 589 0
DWIDTH 11 0
BBX 9 14 1 0
BITMAP
0600
0C00
0000
0000
7E00
FF00
E380
C380
C180
C180
C380
E380
7F00
3E00
ENDCHAR
STARTCHAR 00F4
ENCODING 244
SWIDTH 589 0
DWIDTH 11 0
BBX 9 14 1 0
BITMAP
1C00
3600
4000
0000
7E00
FF00
E380
C380
C180
C180
C380
E380
7F00
3E00
ENDCHAR
STARTCHAR 00F5
ENCODING 245
SWIDTH 589 0
DWIDTH 11 0
BBX 9 14 1 0
BITMAP
3900
4E00
0000
0000
7E00
FF00
E380
C380
C180
C180
C380
E380
7F00
3E00
ENDCHAR
STARTCHAR 00F6
ENCODING 246
SWIDTH 589 0
DWIDTH 11 0
BBX 9 14 1 0
BITMAP
2600
2600
0000
0000
7E00
FF00
E380
C380
C180
C180
C380
E380
7F00
3E00
ENDCHAR
STARTCHAR 00F7
ENCODING 247
SWIDTH 589 0
DWIDTH 11 0
BBX 9 10 1 2
BITMAP
0800
0C00
0C00
0000
FF80
FF80
0000
0000
0C00
0C00
ENDCHAR
STARTCHAR 00F8
ENCODING 248
SWIDTH 589 0
DWIDTH 11 0
BBX 9 10 1 0
BITMAP
7E80
FF00
E380
C780
C980
D980
D380
E380
7F00
BE00
ENDCHAR
STARTCHAR 00F9
ENCODING 249
SWIDTH 589 0
DWIDTH 11 0
BBX 9 14 1 0
BITMAP
3000
0800
0400
0000
C180
C180
C180
C180
C180
C180
C180
E380
FF80
7D80
ENDCHAR
STARTCHAR 00FA
ENCODING 250
SWIDTH 589 0
DWIDTH 11 0
BBX 9 14 1 0
BITMAP
0600
0C00
0000
0000
C180
C180
C180
C180
C180
C180
C180
E380
FF80
7D80
ENDCHAR
STARTCHAR 00FB
ENCODING 251
SWIDTH 589 0
DWIDTH 11 0
BBX 9 14 1 0
BITMAP
1C00
3600
0000
0000
C180
C180
C180
C180
C180
C180
C180
E380
FF80
7D80
ENDCHAR
STARTCHAR 00FC
ENCODING 252
SWIDTH 589 0
DWIDTH 11 0
BBX 9 14 1 0
BITMAP
2600
2600
0000
0000
C180
C180
C180
C180
C180
C180
C180
E380
FF80
7D80
ENDCHAR
STARTCHAR 00FD
ENCODING 253
SWIDTH 535 0
DWIDTH 10 0
BBX 10 18 0 -4
BITMAP
0700
0400
0800
0000
E0C0
61C0
61C0
7180
3180
3380
3300
3B00
1F00
0F00
0600
0600
0600
0E00
ENDCHAR
STARTCHAR 00FE
ENCODING 254
SWIDTH 589 0
DWIDTH 11 0
BBX 9 18 1 -4
BITMAP
C000
C000
C000
C000
DE00
FF00
C380
C180
C180
C180
C180
C380
FF00
DF00
C000
C000
C000
C000
ENDCHAR
STARTCHAR 00FF
ENCODING 255
SWIDTH 535 0
DWIDTH 10 0
BBX 10 18 0 -4
BITMAP
3300
3300
0000
0000
E0C0
61C0
61C0
7180
3180
3380
3300
3B00
1F00
0F00
0600
0600
0600
0E00
ENDCHAR
ENDFONT
